<svg width="120" height="120" viewBox="0 0 120 120" fill="none" xmlns="http://www.w3.org/2000/svg">
<path fill-rule="evenodd" clip-rule="evenodd" d="M85 10C85 7.23858 82.7614 5 80 5C77.2386 5 75 7.23858 75 10V15H45V10C45 7.23858 42.7614 5 40 5C37.2386 5 35 7.23858 35 10V15.0081C32.6227 15.0245 30.5449 15.0736 28.7409 15.221C25.9304 15.4506 23.3469 15.9434 20.9202 17.1799C17.157 19.0973 14.0973 22.157 12.1799 25.9202C10.9434 28.3469 10.4506 30.9304 10.221 33.7409C9.99989 36.4468 9.99994 39.7686 10 43.7934V86.2066C9.99994 90.2314 9.99989 93.5532 10.221 96.2591C10.4506 99.0696 10.9434 101.653 12.1799 104.08C14.0973 107.843 17.157 110.903 20.9202 112.82C23.3469 114.057 25.9304 114.549 28.7409 114.779C31.4468 115 34.7686 115 38.7934 115H81.2066C85.2314 115 88.5532 115 91.2591 114.779C94.0696 114.549 96.6531 114.057 99.0798 112.82C102.843 110.903 105.903 107.843 107.82 104.08C109.057 101.653 109.549 99.0696 109.779 96.2591C110 93.5532 110 90.2314 110 86.2066V43.7934C110 39.7686 110 36.4468 109.779 33.7409C109.549 30.9304 109.057 28.3469 107.82 25.9202C105.903 22.157 102.843 19.0973 99.0798 17.1799C96.6531 15.9434 94.0696 15.4506 91.2591 15.221C89.4551 15.0736 87.3773 15.0245 85 15.0081V10ZM35 30V25.0088C32.7724 25.0245 31.0232 25.0678 29.5552 25.1878C27.3631 25.3669 26.2421 25.6915 25.4601 26.0899C23.5785 27.0487 22.0487 28.5785 21.0899 30.4601C20.6915 31.2421 20.3669 32.3631 20.1878 34.5552C20.0039 36.8056 20 39.7171 20 44V45H100V44C100 39.7171 99.9961 36.8056 99.8122 34.5552C99.6331 32.3631 99.3085 31.2421 98.9101 30.4601C97.9513 28.5785 96.4215 27.0487 94.5399 26.0899C93.7579 25.6915 92.6369 25.3669 90.4448 25.1878C88.9769 25.0678 87.2276 25.0245 85 25.0088V30C85 32.7614 82.7614 35 80 35C77.2386 35 75 32.7614 75 30V25H45V30C45 32.7614 42.7614 35 40 35C37.2386 35 35 32.7614 35 30ZM81.0355 71.0355C82.9882 69.0829 82.9882 65.9171 81.0355 63.9645C79.0829 62.0118 75.9171 62.0118 73.9645 63.9645L55 82.9289L48.5355 76.4645C46.5829 74.5118 43.4171 74.5118 41.4645 76.4645C39.5118 78.4171 39.5118 81.5829 41.4645 83.5355L51.4645 93.5355C53.4171 95.4882 56.5829 95.4882 58.5355 93.5355L81.0355 71.0355Z" fill="black"/>
</svg>
