<svg width="120" height="120" viewBox="0 0 120 120" fill="none" xmlns="http://www.w3.org/2000/svg">
<path fill-rule="evenodd" clip-rule="evenodd" d="M5 47.4C5 29.8556 18.2887 10 39.4444 10C48.5797 10 55.3304 13.5525 60 17.5541C64.6696 13.5525 71.4204 10 80.5556 10C101.711 10 115 29.8556 115 47.4C115 56.6272 111.427 65.1484 106.465 72.5456C101.499 79.9487 94.9621 86.4996 88.5556 91.899C82.1303 97.3143 75.6987 101.686 70.8182 104.705C68.3746 106.217 66.2981 107.404 64.779 108.224C64.0234 108.632 63.3812 108.962 62.8857 109.202C62.6446 109.319 62.3934 109.436 62.1596 109.534C62.049 109.58 61.8794 109.649 61.6842 109.716C61.5884 109.748 61.4272 109.8 61.2279 109.85C61.1011 109.881 60.6187 110 60 110C59.3813 110 58.9024 109.882 58.7756 109.85C58.5763 109.801 58.4116 109.748 58.3158 109.716C58.1206 109.649 57.951 109.58 57.8404 109.534C57.6066 109.436 57.3554 109.319 57.1143 109.202C56.6188 108.962 55.9766 108.632 55.221 108.224C53.7019 107.404 51.6254 106.217 49.1818 104.705C44.3013 101.686 37.8697 97.3143 31.4444 91.899C25.0379 86.4996 18.5011 79.9487 13.5352 72.5456C8.57321 65.1484 5 56.6272 5 47.4Z" fill="black"/>
</svg>
