<svg width="120" height="120" viewBox="0 0 120 120" fill="none" xmlns="http://www.w3.org/2000/svg">
<path d="M65 10C65 7.23858 62.7614 5 60 5C57.2386 5 55 7.23858 55 10V15C55 17.7614 57.2386 20 60 20C62.7614 20 65 17.7614 65 15V10Z" fill="black"/>
<path d="M10 55C7.23858 55 5 57.2386 5 60C5 62.7614 7.23858 65 10 65H15C17.7614 65 20 62.7614 20 60C20 57.2386 17.7614 55 15 55H10Z" fill="black"/>
<path d="M20.964 20.964C22.9166 19.0114 26.0824 19.0114 28.035 20.964L31.0355 23.9645C32.9882 25.9171 32.9882 29.0829 31.0355 31.0355C29.0829 32.9882 25.9171 32.9882 23.9645 31.0355L20.964 28.035C19.0114 26.0824 19.0114 22.9166 20.964 20.964Z" fill="black"/>
<path d="M99.0363 28.0355C100.989 26.0831 100.99 22.9173 99.0372 20.9644C97.0849 19.0116 93.919 19.0112 91.9662 20.9635L88.9649 23.964C87.012 25.9164 87.0117 29.0822 88.964 31.0351C90.9164 32.988 94.0822 32.9884 96.0351 31.036L99.0363 28.0355Z" fill="black"/>
<path d="M100 60C100 57.2386 102.239 55 105 55H110C112.761 55 115 57.2386 115 60C115 62.7614 112.761 65 110 65H105C102.239 65 100 62.7614 100 60Z" fill="black"/>
<path fill-rule="evenodd" clip-rule="evenodd" d="M60 25C40.67 25 25 40.67 25 60C25 70.7662 29.8653 80.3962 37.5 86.8103L37.5 94.1927C37.4999 96.8285 37.4998 99.1023 37.6528 100.975C37.8144 102.952 38.1709 104.918 39.1349 106.81C40.573 109.632 42.8677 111.927 45.6901 113.365C47.582 114.329 49.5481 114.686 51.5249 114.847C53.3977 115 55.6715 115 58.3072 115H61.6928C64.3285 115 66.6023 115 68.4751 114.847C70.4519 114.686 72.418 114.329 74.3099 113.365C77.1323 111.927 79.427 109.632 80.8651 106.81C81.8291 104.918 82.1856 102.952 82.3472 100.975C82.5002 99.1023 82.5001 96.8285 82.5 94.1928V86.8103C90.1347 80.3962 95 70.7662 95 60C95 40.67 79.33 25 60 25ZM45 67.5C45 64.7386 47.2386 62.5 50 62.5H70C72.7614 62.5 75 64.7386 75 67.5C75 70.2614 72.7614 72.5 70 72.5H65V92.5C65 95.2614 62.7614 97.5 60 97.5C57.2386 97.5 55 95.2614 55 92.5V72.5H50C47.2386 72.5 45 70.2614 45 67.5Z" fill="black"/>
</svg>
